<?xml version="1.0" encoding="utf-8"?>
<svg fill="none" height="24" viewBox="0 0 24 24" width="24" xmlns="http://www.w3.org/2000/svg">
  <path d="M 15.602 8.522 L 8.404 8.522 L 8.405 5.764 C 8.405 4.954 7.457 4.54 6.885 5.098 L 0.279 11.536 C -0.093 11.899 -0.093 12.505 0.279 12.868 L 6.885 19.307 L 6.983 19.39 C 7.559 19.818 8.405 19.405 8.405 18.641 L 8.404 15.881 L 15.602 15.881 L 15.603 18.641 C 15.603 19.45 16.552 19.865 17.125 19.307 L 23.722 12.868 C 24.093 12.505 24.093 11.899 23.722 11.538 L 17.125 5.098 C 16.552 4.54 15.603 4.954 15.603 5.764 L 15.602 8.522 Z M 2.203 12.202 L 6.604 7.911 L 6.605 9.443 C 6.605 9.951 7.008 10.363 7.505 10.363 L 16.503 10.363 L 16.625 10.354 C 17.065 10.293 17.403 9.908 17.403 9.443 L 17.402 7.914 L 21.796 12.202 L 17.402 16.49 L 17.403 14.963 C 17.403 14.454 17 14.043 16.503 14.043 L 7.505 14.043 L 7.383 14.052 C 6.944 14.112 6.605 14.497 6.605 14.963 L 6.604 16.492 L 2.203 12.202 Z" fill="#212121" style=""/>
</svg>