<?xml version="1.0" encoding="utf-8"?>
<svg viewBox="0 0 640 512" xmlns="http://www.w3.org/2000/svg">
  <path d="M 625.536 348.186 C 621.541 338.471 612.042 331.238 601.571 331.238 L 549.754 331.238 L 549.754 176.761 C 549.754 129.155 511 90.4 463.394 90.4 L 325.217 90.4 C 306.143 90.4 290.673 105.848 290.673 124.945 C 290.673 144.041 306.143 159.489 325.217 159.489 L 463.394 159.489 C 472.894 159.489 480.666 167.261 480.666 176.761 L 480.666 331.238 L 428.85 331.238 C 418.375 331.238 408.933 337.546 404.917 347.236 C 400.902 356.926 403.13 368.06 410.534 375.476 L 496.894 461.858 C 501.932 467.903 508.625 470.386 515.21 470.386 C 521.795 470.386 528.467 467.856 533.529 462.796 L 619.89 376.414 C 627.263 369.021 629.53 357.902 625.536 348.186 Z M 311.911 366.754 L 173.735 366.754 C 164.235 366.754 156.463 358.981 156.463 349.481 L 156.463 194.033 L 208.279 194.033 C 218.753 194.033 228.196 187.724 232.212 178.035 C 236.227 168.345 233.999 157.211 226.595 149.795 L 140.234 63.413 C 135.196 58.382 128.504 55.856 121.919 55.856 C 115.334 55.856 108.641 58.382 103.567 63.445 L 17.207 149.827 C 9.834 157.222 7.61 168.341 11.626 178.056 C 15.641 187.772 25.087 194.033 35.558 194.033 L 87.374 194.033 L 87.374 349.481 C 87.374 397.088 126.129 435.842 173.735 435.842 L 311.911 435.842 C 330.986 435.842 346.455 420.394 346.455 401.298 C 346.455 382.201 331.019 366.754 311.911 366.754 Z" style=""/>
</svg>